<svg width="25" height="25" viewBox="0 0 25 25" fill="none" xmlns="http://www.w3.org/2000/svg">
<g clip-path="url(#clip0_729_320)">
<path fill-rule="evenodd" clip-rule="evenodd" d="M13.0066 1.00464C10.1575 1.00612 7.40194 2.0151 5.23249 3.85116C3.06304 5.68723 1.62121 8.23065 1.16481 11.0266C0.708409 13.8226 1.2672 16.6889 2.74127 19.1128C4.21534 21.5368 6.50857 23.3604 9.21089 24.2576C9.80707 24.3683 10.0316 23.9988 10.0316 23.6846C10.0316 23.3705 10.0197 22.4596 10.0157 21.4639C6.67714 22.185 5.97167 20.0551 5.97167 20.0551C5.42716 18.6721 4.6402 18.3085 4.6402 18.3085C3.55119 17.5696 4.72169 17.5834 4.72169 17.5834C5.92795 17.6684 6.56189 18.8143 6.56189 18.8143C7.63103 20.638 9.36987 20.1104 10.0535 19.8022C10.1608 19.0297 10.4728 18.5041 10.8166 18.2058C8.1497 17.9055 5.34767 16.882 5.34767 12.3101C5.33114 11.1243 5.77369 9.97769 6.58375 9.10732C6.46054 8.807 6.04917 7.59387 6.70099 5.94607C6.70099 5.94607 7.70854 5.62599 10.0018 7.16908C11.9689 6.63426 14.0443 6.63426 16.0113 7.16908C18.3026 5.62599 19.3081 5.94607 19.3081 5.94607C19.962 7.58992 19.5506 8.80305 19.4274 9.10732C20.24 9.97783 20.6835 11.1265 20.6654 12.314C20.6654 16.8958 17.8575 17.9055 15.1866 18.1999C15.6158 18.5713 15.9994 19.2964 15.9994 20.4108C15.9994 22.0072 15.9855 23.2915 15.9855 23.6846C15.9855 24.0027 16.2021 24.3742 16.8102 24.2576C19.5128 23.3603 21.8063 21.5363 23.2803 19.112C24.7544 16.6876 25.3129 13.8209 24.8559 11.0247C24.399 8.22844 22.9565 5.68499 20.7863 3.84924C18.6161 2.01349 15.8599 1.00518 13.0105 1.00464H13.0066Z" fill="white"/>
<path d="M5.52798 18.1354C5.50215 18.1947 5.40676 18.2125 5.32926 18.171C5.25176 18.1295 5.19413 18.0524 5.22195 17.9912C5.24977 17.9299 5.34317 17.9141 5.42068 17.9556C5.49818 17.9971 5.55779 18.0761 5.52798 18.1354Z" fill="white"/>
<path d="M6.01368 18.6748C5.97252 18.6954 5.92544 18.7012 5.88049 18.6911C5.83554 18.681 5.79551 18.6557 5.76726 18.6195C5.68976 18.5365 5.67385 18.4219 5.73347 18.3705C5.79309 18.3192 5.90041 18.3429 5.97791 18.4259C6.05541 18.5088 6.0733 18.6234 6.01368 18.6748Z" fill="white"/>
<path d="M6.46582 19.3617C6.39229 19.413 6.26709 19.3617 6.19753 19.2589C6.1783 19.2405 6.16301 19.2184 6.15256 19.194C6.14211 19.1695 6.13672 19.1432 6.13672 19.1167C6.13672 19.0901 6.14211 19.0638 6.15256 19.0394C6.16301 19.0149 6.1783 18.9928 6.19753 18.9744C6.27106 18.925 6.39627 18.9744 6.46582 19.0752C6.53538 19.1759 6.53736 19.3103 6.46582 19.3617Z" fill="white"/>
<path d="M7.12809 20.0243C7.06251 20.0974 6.92936 20.0776 6.82006 19.9788C6.71076 19.8801 6.68492 19.7457 6.7505 19.6746C6.81608 19.6034 6.94923 19.6232 7.0625 19.72C7.17578 19.8168 7.19764 19.9532 7.12809 20.0243Z" fill="white"/>
<path d="M8.00716 20.4133C7.97735 20.5061 7.84221 20.5476 7.70708 20.5081C7.57194 20.4686 7.48252 20.3579 7.50835 20.2631C7.53419 20.1683 7.67131 20.1248 7.80843 20.1683C7.94555 20.2117 8.03299 20.3165 8.00716 20.4133Z" fill="white"/>
<path d="M8.99516 20.4779C8.99516 20.5747 8.88388 20.6577 8.7408 20.6596C8.59772 20.6616 8.48047 20.5826 8.48047 20.4858C8.48047 20.389 8.59175 20.306 8.73483 20.304C8.87791 20.302 8.99516 20.3791 8.99516 20.4779Z" fill="white"/>
<path d="M9.92485 20.3266C9.94274 20.4234 9.84337 20.5242 9.70029 20.5479C9.55721 20.5716 9.43201 20.5143 9.41412 20.4194C9.39624 20.3246 9.49958 20.2219 9.63869 20.1962C9.77779 20.1705 9.90697 20.2298 9.92485 20.3266Z" fill="white"/>
</g>
<defs>
<clipPath id="clip0_729_320">
<rect width="24.0021" height="24" fill="white" transform="translate(0.960938 0.50415)"/>
</clipPath>
</defs>
</svg>
