<svg width="128" height="128" viewBox="0 0 128 128" fill="none" xmlns="http://www.w3.org/2000/svg">
<g filter="url(#filter0_b_102_34)">
<path d="M19.037 113.876L9.03198 1.661H118.968L108.952 113.859L63.933 126.339L19.037 113.876Z" fill="black"/>
<path d="M64 116.8L100.378 106.714L108.937 10.836H64V116.8Z" fill="#424242"/>
<path d="M64 52.455H45.788L44.53 38.361H64V24.599H29.489L29.819 28.291L33.201 66.218H64V52.455ZM64 88.198L63.939 88.215L48.612 84.075L47.633 73.1H33.816L35.744 94.709L63.937 102.535L64 102.518V88.198Z" fill="white"/>
<path d="M63.952 52.455V66.218H80.899L79.302 84.067L63.952 88.21V102.529L92.167 94.709L92.374 92.384L95.608 56.151L95.943 52.455H92.235H63.952ZM63.952 24.599V38.361H97.196L97.472 35.269L98.1 28.291L98.429 24.599H63.952Z" fill="white"/>
</g>
<defs>
<filter id="filter0_b_102_34" x="-4" y="-4" width="136" height="136" filterUnits="userSpaceOnUse" color-interpolation-filters="sRGB">
<feFlood flood-opacity="0" result="BackgroundImageFix"/>
<feGaussianBlur in="BackgroundImageFix" stdDeviation="2"/>
<feComposite in2="SourceAlpha" operator="in" result="effect1_backgroundBlur_102_34"/>
<feBlend mode="normal" in="SourceGraphic" in2="effect1_backgroundBlur_102_34" result="shape"/>
</filter>
</defs>
</svg>
