<svg width="25" height="25" viewBox="0 0 25 25" fill="none" xmlns="http://www.w3.org/2000/svg">
<path d="M21.0117 9.50415L21.0117 3.50415M21.0117 3.50415H15.0117M21.0117 3.50415L13.0117 11.5042M10.0117 5.50415H7.81172C6.13156 5.50415 5.29148 5.50415 4.64975 5.83113C4.08526 6.11875 3.62632 6.57769 3.3387 7.14218C3.01172 7.78391 3.01172 8.62399 3.01172 10.3042V16.7042C3.01172 18.3843 3.01172 19.2244 3.3387 19.8661C3.62632 20.4306 4.08526 20.8896 4.64975 21.1772C5.29148 21.5042 6.13156 21.5042 7.81172 21.5042H14.2117C15.8919 21.5042 16.732 21.5042 17.3737 21.1772C17.9382 20.8896 18.3971 20.4306 18.6847 19.8661C19.0117 19.2244 19.0117 18.3843 19.0117 16.7042V14.5042" stroke="white" stroke-width="2" stroke-linecap="round" stroke-linejoin="round"/>
</svg>
