<svg width="128" height="128" viewBox="0 0 128 128" fill="none" xmlns="http://www.w3.org/2000/svg">
<path d="M0.994019 0.994003V127.006H127.006V0.994003H0.994019ZM72.914 42.709C72.914 42.709 76.902 72.765 76.902 74.152L82.687 56.032H82.647C85.199 49.172 90.226 42.709 99.799 42.709L86.236 75.459C85.0587 79.17 82.7232 82.412 79.5679 84.7151C76.4127 87.0181 72.6016 88.2625 68.687 88.268C68.687 88.268 64.697 60.115 64.697 59.48L58.715 74.945C56.042 81.805 50.858 88.268 41.285 88.268L33.785 42.75C37.4348 42.841 40.9244 44.2592 43.5928 46.7361C46.2612 49.213 47.9232 52.5767 48.264 56.19C48.264 56.19 49.262 72.883 49.262 74.191L56.322 56.031C58.875 49.171 63.74 42.709 72.914 42.709V42.709Z" fill="#4353FF"/>
</svg>
